# xmcd CD database file
#
# Track frame offsets:
#	150
#	12955
#	28735
#	43395
#	56135
#	67535
#	82035
#	95795
#	108407
#	123852
#	138875
#	151180
#	166500
#	181595
#	197215
#	210125
#	225427
#	240787
#	254932
#	266964
#
# Disc length: 3784 seconds
#
# Revision: 0
# Processed by: cddbd v1.5.2PL0 Copyright (c) Steve Scherf et al.
# Submitted via: CDex 1.70beta2
#
DISCID=040ec614
DTITLE=Benny Goodman - Trio and Quartet Showcase [CD1]
DYEAR=2007
DGENRE=Jazz
TTITLE0=After You've Gone
TTITLE1=Body and Soul
TTITLE2=Who?
TTITLE3=Someday Sweetheart
TTITLE4=China Boy
TTITLE5=More Than You Know
TTITLE6=Oh Lady Be Good
TTITLE7=Nobody's Sweetheart
TTITLE8=Moonglow
TTITLE9=Exactly Like You
TTITLE10=Dinah
TTITLE11=Vibraphone Blues
TTITLE12=Sweet Sue, Just You
TTITLE13=My Melancholy Baby 
TTITLE14=Stompin' at the Savoy
TTITLE15=Tiger Rag
TTITLE16=Whispering
TTITLE17=Tea for Two
TTITLE18=Runnin' Wild
TTITLE19=Ida, Sweet as Apple Cider
EXTD=YEAR: 2007
EXTT0=
EXTT1=
EXTT2=
EXTT3=
EXTT4=
EXTT5=
EXTT6=
EXTT7=
EXTT8=
EXTT9=
EXTT10=
EXTT11=
EXTT12=
EXTT13=
EXTT14=
EXTT15=
EXTT16=
EXTT17=
EXTT18=
EXTT19=
PLAYORDER=
